<mxfile host="Electron" modified="2023-09-16T04:55:38.794Z" agent="Mozilla/5.0 (Macintosh; Intel Mac OS X 10_15_7) AppleWebKit/537.36 (KHTML, like Gecko) draw.io/21.6.5 Chrome/114.0.5735.243 Electron/25.3.1 Safari/537.36" etag="q6XmADjJZ8EodSV0rtF1" version="21.6.5" type="device">
  <diagram name="Page-1" id="2LZmc8OMMrGISE7IMPKD">
    <mxGraphModel dx="545" dy="385" grid="1" gridSize="10" guides="1" tooltips="1" connect="1" arrows="1" fold="1" page="1" pageScale="1" pageWidth="3300" pageHeight="4681" math="0" shadow="0">
      <root>
        <mxCell id="0" />
        <mxCell id="1" parent="0" />
        <mxCell id="xrW8Nmpw9eXs8SFGkZ5n-9" style="edgeStyle=orthogonalEdgeStyle;rounded=0;orthogonalLoop=1;jettySize=auto;html=1;entryX=0.004;entryY=0.543;entryDx=0;entryDy=0;entryPerimeter=0;" edge="1" parent="1" source="xrW8Nmpw9eXs8SFGkZ5n-1" target="xrW8Nmpw9eXs8SFGkZ5n-5">
          <mxGeometry relative="1" as="geometry" />
        </mxCell>
        <mxCell id="xrW8Nmpw9eXs8SFGkZ5n-1" value="User" style="shape=umlActor;verticalLabelPosition=bottom;verticalAlign=top;html=1;outlineConnect=0;" vertex="1" parent="1">
          <mxGeometry x="120" y="190" width="30" height="60" as="geometry" />
        </mxCell>
        <mxCell id="xrW8Nmpw9eXs8SFGkZ5n-3" value="" style="shape=cylinder3;whiteSpace=wrap;html=1;boundedLbl=1;backgroundOutline=1;size=15;" vertex="1" parent="1">
          <mxGeometry x="620" y="230" width="60" height="80" as="geometry" />
        </mxCell>
        <mxCell id="xrW8Nmpw9eXs8SFGkZ5n-10" style="edgeStyle=orthogonalEdgeStyle;rounded=0;orthogonalLoop=1;jettySize=auto;html=1;entryX=0;entryY=0.5;entryDx=0;entryDy=0;entryPerimeter=0;" edge="1" parent="1" source="xrW8Nmpw9eXs8SFGkZ5n-5" target="xrW8Nmpw9eXs8SFGkZ5n-3">
          <mxGeometry relative="1" as="geometry" />
        </mxCell>
        <mxCell id="xrW8Nmpw9eXs8SFGkZ5n-5" value="" style="whiteSpace=wrap;html=1;aspect=fixed;" vertex="1" parent="1">
          <mxGeometry x="250" y="298" width="250" height="250" as="geometry" />
        </mxCell>
        <mxCell id="xrW8Nmpw9eXs8SFGkZ5n-6" value="Client" style="text;html=1;align=center;verticalAlign=middle;resizable=0;points=[];autosize=1;strokeColor=none;fillColor=none;" vertex="1" parent="1">
          <mxGeometry x="340" y="268" width="50" height="30" as="geometry" />
        </mxCell>
        <mxCell id="xrW8Nmpw9eXs8SFGkZ5n-8" value="Database - firestore" style="text;html=1;align=center;verticalAlign=middle;resizable=0;points=[];autosize=1;strokeColor=none;fillColor=none;" vertex="1" parent="1">
          <mxGeometry x="585" y="310" width="130" height="30" as="geometry" />
        </mxCell>
        <mxCell id="xrW8Nmpw9eXs8SFGkZ5n-13" style="edgeStyle=orthogonalEdgeStyle;rounded=0;orthogonalLoop=1;jettySize=auto;html=1;exitX=0.5;exitY=1;exitDx=0;exitDy=0;entryX=0;entryY=0.5;entryDx=0;entryDy=0;" edge="1" parent="1" source="xrW8Nmpw9eXs8SFGkZ5n-11" target="xrW8Nmpw9eXs8SFGkZ5n-12">
          <mxGeometry relative="1" as="geometry" />
        </mxCell>
        <mxCell id="xrW8Nmpw9eXs8SFGkZ5n-18" value="Data" style="edgeLabel;html=1;align=center;verticalAlign=middle;resizable=0;points=[];" vertex="1" connectable="0" parent="xrW8Nmpw9eXs8SFGkZ5n-13">
          <mxGeometry x="-0.4998" y="-2" relative="1" as="geometry">
            <mxPoint as="offset" />
          </mxGeometry>
        </mxCell>
        <mxCell id="xrW8Nmpw9eXs8SFGkZ5n-11" value="Registration" style="shape=process;whiteSpace=wrap;html=1;backgroundOutline=1;" vertex="1" parent="1">
          <mxGeometry x="260" y="390" width="120" height="60" as="geometry" />
        </mxCell>
        <mxCell id="xrW8Nmpw9eXs8SFGkZ5n-19" style="edgeStyle=orthogonalEdgeStyle;rounded=0;orthogonalLoop=1;jettySize=auto;html=1;exitX=1;exitY=0.5;exitDx=0;exitDy=0;" edge="1" parent="1" source="xrW8Nmpw9eXs8SFGkZ5n-12" target="xrW8Nmpw9eXs8SFGkZ5n-8">
          <mxGeometry relative="1" as="geometry" />
        </mxCell>
        <mxCell id="xrW8Nmpw9eXs8SFGkZ5n-20" value="If email != email from DB&amp;nbsp;" style="edgeLabel;html=1;align=center;verticalAlign=middle;resizable=0;points=[];" vertex="1" connectable="0" parent="xrW8Nmpw9eXs8SFGkZ5n-19">
          <mxGeometry x="-0.9168" y="1" relative="1" as="geometry">
            <mxPoint x="76" y="1" as="offset" />
          </mxGeometry>
        </mxCell>
        <mxCell id="xrW8Nmpw9eXs8SFGkZ5n-21" value="Save user data" style="edgeLabel;html=1;align=center;verticalAlign=middle;resizable=0;points=[];" vertex="1" connectable="0" parent="xrW8Nmpw9eXs8SFGkZ5n-19">
          <mxGeometry x="0.4605" y="-1" relative="1" as="geometry">
            <mxPoint as="offset" />
          </mxGeometry>
        </mxCell>
        <mxCell id="xrW8Nmpw9eXs8SFGkZ5n-12" value="Validity Check" style="shape=process;whiteSpace=wrap;html=1;backgroundOutline=1;" vertex="1" parent="1">
          <mxGeometry x="350" y="470" width="120" height="60" as="geometry" />
        </mxCell>
        <mxCell id="xrW8Nmpw9eXs8SFGkZ5n-16" style="edgeStyle=orthogonalEdgeStyle;rounded=0;orthogonalLoop=1;jettySize=auto;html=1;exitX=1;exitY=0.5;exitDx=0;exitDy=0;entryX=0.75;entryY=0;entryDx=0;entryDy=0;" edge="1" parent="1" source="xrW8Nmpw9eXs8SFGkZ5n-5" target="xrW8Nmpw9eXs8SFGkZ5n-12">
          <mxGeometry relative="1" as="geometry">
            <Array as="points">
              <mxPoint x="440" y="423" />
            </Array>
          </mxGeometry>
        </mxCell>
        <mxCell id="xrW8Nmpw9eXs8SFGkZ5n-17" value="email" style="edgeLabel;html=1;align=center;verticalAlign=middle;resizable=0;points=[];" vertex="1" connectable="0" parent="xrW8Nmpw9eXs8SFGkZ5n-16">
          <mxGeometry x="-0.3508" y="1" relative="1" as="geometry">
            <mxPoint as="offset" />
          </mxGeometry>
        </mxCell>
      </root>
    </mxGraphModel>
  </diagram>
</mxfile>
